<?xml version="1.0" encoding="UTF-8" standalone="no"?>
<!DOCTYPE svg PUBLIC "-//W3C//DTD SVG 1.1//EN" "http://www.w3.org/Graphics/SVG/1.1/DTD/svg11.dtd">
<svg width="100%" height="100%" viewBox="0 0 1578 529" version="1.1" xmlns="http://www.w3.org/2000/svg" xmlns:xlink="http://www.w3.org/1999/xlink" xml:space="preserve" xmlns:serif="http://www.serif.com/" style="fill-rule:evenodd;clip-rule:evenodd;stroke-linejoin:round;stroke-miterlimit:2;">
    <g transform="matrix(1,0,0,1,-1481.278896,-2190.502478)">
        <g>
            <g transform="matrix(1,0,0,1,-62.818085,1601.360746)">
                <path d="M1988.888,958.099C1972.376,958.099 1958.216,955.075 1946.408,949.027C1934.6,942.979 1925.576,934.339 1919.336,923.107C1913.096,911.875 1909.976,898.579 1909.976,883.219L1909.976,752.467L1947.992,752.467L1947.992,884.371C1947.992,896.659 1951.496,906.355 1958.504,913.459C1965.512,920.563 1975.64,924.115 1988.888,924.115C2002.136,924.115 2012.264,920.563 2019.272,913.459C2026.28,906.355 2029.784,896.659 2029.784,884.371L2029.784,752.467L2067.8,752.467L2067.8,883.219C2067.8,898.579 2064.68,911.875 2058.44,923.107C2052.2,934.339 2043.176,942.979 2031.368,949.027C2019.56,955.075 2005.4,958.099 1988.888,958.099Z" style="fill-rule:nonzero;"/>
                <path d="M2104.664,954.067L2104.664,752.467L2176.952,752.467L2216.984,928.147L2222.168,928.147L2222.168,752.467L2259.608,752.467L2259.608,954.067L2187.32,954.067L2147.288,778.387L2142.104,778.387L2142.104,954.067L2104.664,954.067Z" style="fill-rule:nonzero;"/>
                <path d="M2297.624,954.067L2297.624,752.467L2335.64,752.467L2335.64,919.507L2427.8,919.507L2427.8,954.067L2297.624,954.067Z" style="fill-rule:nonzero;"/>
                <path d="M2453.72,954.067L2453.72,752.467L2583.32,752.467L2583.32,787.027L2491.736,787.027L2491.736,835.123L2575.256,835.123L2575.256,869.683L2491.736,869.683L2491.736,919.507L2585.048,919.507L2585.048,954.067L2453.72,954.067Z" style="fill-rule:nonzero;"/>
                <path d="M2599.448,954.067L2652.44,752.467L2718.68,752.467L2771.672,954.067L2732.504,954.067L2721.56,909.715L2649.56,909.715L2638.616,954.067L2599.448,954.067ZM2658.488,874.579L2712.632,874.579L2688.152,776.371L2682.968,776.371L2658.488,874.579Z" style="fill-rule:nonzero;"/>
                <path d="M2865.848,958.099C2850.296,958.099 2836.568,955.315 2824.664,949.747C2812.76,944.179 2803.448,936.211 2796.728,925.843C2790.008,915.475 2786.648,902.995 2786.648,888.403L2786.648,880.339L2824.088,880.339L2824.088,888.403C2824.088,900.499 2827.832,909.571 2835.32,915.619C2842.808,921.667 2852.984,924.691 2865.848,924.691C2878.904,924.691 2888.648,922.099 2895.08,916.915C2901.512,911.731 2904.728,905.107 2904.728,897.043C2904.728,891.475 2903.144,886.963 2899.976,883.507C2896.808,880.051 2892.2,877.219 2886.152,875.011C2880.104,872.803 2872.76,870.739 2864.12,868.819L2857.496,867.379C2843.672,864.307 2831.816,860.419 2821.928,855.715C2812.04,851.011 2804.456,844.819 2799.176,837.139C2793.896,829.459 2791.256,819.475 2791.256,807.187C2791.256,794.899 2794.184,784.387 2800.04,775.651C2805.896,766.915 2814.152,760.195 2824.808,755.491C2835.464,750.787 2847.992,748.435 2862.392,748.435C2876.792,748.435 2889.608,750.883 2900.84,755.779C2912.072,760.675 2920.904,767.971 2927.336,777.667C2933.768,787.363 2936.984,799.507 2936.984,814.099L2936.984,822.739L2899.544,822.739L2899.544,814.099C2899.544,806.419 2898.056,800.227 2895.08,795.523C2892.104,790.819 2887.832,787.363 2882.264,785.155C2876.696,782.947 2870.072,781.843 2862.392,781.843C2850.872,781.843 2842.376,784.003 2836.904,788.323C2831.432,792.643 2828.696,798.547 2828.696,806.035C2828.696,811.027 2829.992,815.251 2832.584,818.707C2835.176,822.163 2839.064,825.043 2844.248,827.347C2849.432,829.651 2856.056,831.667 2864.12,833.395L2870.744,834.835C2885.144,837.907 2897.672,841.843 2908.328,846.643C2918.984,851.443 2927.288,857.779 2933.24,865.651C2939.192,873.523 2942.168,883.603 2942.168,895.891C2942.168,908.179 2939.048,918.979 2932.808,928.291C2926.568,937.603 2917.736,944.899 2906.312,950.179C2894.888,955.459 2881.4,958.099 2865.848,958.099Z" style="fill-rule:nonzero;"/>
                <path d="M2970.392,954.067L2970.392,752.467L3008.408,752.467L3008.408,835.699L3083.288,835.699L3083.288,752.467L3121.304,752.467L3121.304,954.067L3083.288,954.067L3083.288,870.259L3008.408,870.259L3008.408,954.067L2970.392,954.067Z" style="fill-rule:nonzero;"/>
            </g>
            <g transform="matrix(0.626614,-0.582883,0.582883,0.626614,-581.250851,2186.442123)">
                <g transform="matrix(0.154627,0,0,0.154627,1386.369241,1678.252055)">
                    <path d="M3222.823,1321.516C3232.378,1305.647 3240.454,1288.683 3248.621,1272.062C3189.739,1335.164 3127.804,1395.234 3066.615,1456.091C3024.159,1498.312 2978.884,1539.276 2944.79,1588.868C2923.264,1620.177 2908.773,1654.843 2893.613,1689.437C2890.693,1665.379 2886.143,1641.63 2879.966,1618.196L2877.993,1620.422C2859.497,1641.501 2845.165,1667.125 2829.13,1690.157C2772.067,1772.132 2702.952,1856.503 2598.652,1874.046C2591.641,1907.581 2581.505,1940.195 2571.433,1972.907C2538.093,2081.19 2494.132,2183.344 2442.436,2284.053C2425.662,2316.732 2409.682,2350.465 2389.432,2381.161C2395.119,2337.563 2402.536,2296.465 2414.283,2254.066C2397.996,2272.972 2385.987,2297.536 2375.038,2319.901C2359.908,2351.424 2346.318,2383.599 2334.266,2416.423C2305.675,2496.146 2284.704,2574.64 2223.369,2636.72C2227.77,2651.554 2231.452,2666.34 2234.671,2681.473C2191.504,2736.121 2143.257,2791.939 2109.542,2852.89C2126.153,2838.252 2142.894,2824.003 2161.924,2812.548C2082.884,2986.237 1990.621,3154.725 1901.892,3323.611C1876.334,3372.258 1845.413,3418.847 1822.129,3468.521C1811.217,3479.58 1767.499,3560.997 1757.459,3578.08C1734.337,3616.659 1711.509,3655.409 1688.978,3694.332C1675.755,3716.663 1660.617,3739.076 1649.619,3762.551C1678.695,3725.323 1710.299,3690.075 1740.542,3653.795C1796.496,3587.41 1850.715,3519.638 1903.201,3450.482C1955.765,3381.027 2009.412,3311.725 2060.585,3241.302C2081.283,3212.818 2095.891,3178.641 2121.624,3154.197C2125.804,3150.227 2128.733,3147.949 2134.554,3148.094C2137.608,3150.525 2139.874,3152.561 2141.649,3156.102C2149.297,3171.351 2148.777,3198.287 2145.83,3215.053C2141.26,3241.05 2129.378,3266.635 2120.225,3291.327C2100.248,3345.247 2078.198,3398.717 2059.125,3452.914C2089.551,3408.785 2225.35,3222.607 2234.809,3188.268C2240.125,3168.962 2238.045,3130.564 2241.051,3106.988C2249.238,3042.73 2265.246,2960.621 2308.076,2909.89C2319.655,2896.175 2333.86,2885.663 2347.975,2874.742C2348.525,2871.432 2349.096,2868.128 2349.685,2864.828C2352.417,2849.693 2355.93,2835.719 2363.692,2822.311C2389.553,2777.613 2451.449,2734.099 2493.857,2704.65C2499.868,2681.716 2506.301,2659.815 2517.118,2638.564C2553.362,2567.362 2653.481,2449.788 2712.675,2395.625C2698.661,2403.008 2685.412,2412.41 2671.877,2420.684C2650.646,2433.552 2629.196,2446.047 2607.529,2458.168C2668.6,2363.06 2738.952,2267.448 2819.497,2187.936C2846.56,2161.217 2888.633,2137.5 2910.914,2112.325C2923.296,2098.342 2931.914,2080.138 2942.069,2064.44C2951.944,2049.181 2963.28,2035.435 2975.102,2021.691C2974.304,2019.414 2973.557,2017.166 2972.868,2014.853C2965.8,1991.094 2963.878,1968.088 2967.451,1943.53C2977.866,1871.938 3043.984,1753.297 3079.854,1687.964C3057.675,1697.902 3038.745,1707.924 3020.67,1724.362C3038.287,1686.126 3059.444,1648.891 3078.214,1611.118L3222.823,1321.516Z" style="fill:rgb(255,90,31);fill-rule:nonzero;"/>
                </g>
                <g transform="matrix(0.154627,0,0,0.154627,1386.369241,1678.252055)">
                    <path d="M1535.104,2541.068C1544.231,2513.172 1543.98,2484.722 1557.875,2457.931C1579.713,2415.828 1613.189,2380.528 1637.622,2339.918C1641.85,2357.912 1644.087,2376.777 1647.294,2395.012C1656.297,2356.901 1662.58,2318.346 1666.143,2279.351C1667.959,2258.812 1667.693,2236.976 1671.735,2216.782C1680.425,2173.396 1721.143,2137.215 1752.11,2108.364C1748.399,2096.516 1741.849,2083.375 1740.088,2071.257C1732.923,2021.94 1774.654,1925.083 1798.572,1883.347C1807.558,1867.669 1820.032,1854.045 1828.576,1838.263C1847.723,1802.897 1863.887,1764.622 1880.401,1727.935C1856.382,1756.559 1833.292,1786.124 1809.627,1815.064C1851.22,1693.946 1891.387,1570.359 1956.222,1459.199C1970.314,1435.037 1987.561,1411.008 2005.151,1389.234C2018.924,1372.193 2036.152,1355.612 2045.978,1335.918C2068.657,1290.455 2072.04,1237.951 2093.629,1191.838C2079.128,1171.161 2064.549,1149.887 2057.908,1125.202C2039.125,1055.373 2063.322,845.944 2099.295,782.921C2080.669,798.911 2060.225,812.606 2040.156,826.703C2052.457,785.317 2060.878,742.358 2070.058,700.166C2096.044,580.775 2115.586,460.271 2141.326,340.811C2147.784,306.347 2153.63,271.527 2161.914,237.451C2097.611,352.478 2031.546,466.219 1968.534,582.004C1947.149,621.388 1926.127,660.968 1905.466,700.741C1894.56,721.847 1884.921,744.16 1872.429,764.352C1867.324,742.053 1861.213,720.035 1854.095,698.298C1823.926,815.619 1777.081,935.518 1692.747,1025.032C1676.439,1042.344 1658.269,1057.055 1640.133,1072.33C1629.304,1105.684 1606.108,1204.27 1610.124,1236.838C1615.459,1280.137 1627.086,1312.572 1625.375,1358.25C1621.979,1448.92 1598.611,1540.93 1578.754,1629.056C1570.828,1664.229 1565.425,1700.511 1554.325,1734.833C1545.238,1693.138 1535.651,1651.602 1527.984,1609.61L1527.669,1612.02C1525.099,1632.696 1524.759,1653.611 1523.133,1674.379C1521.613,1693.75 1518.37,1713.472 1518.356,1732.896C1518.331,1768.517 1522.588,1803.828 1521.611,1839.594C1519.821,1905.135 1497.737,1992.387 1451.123,2040.947C1467.037,2076.279 1485.803,2110.666 1470.808,2149.968C1463.098,2170.179 1450.112,2188.252 1438.598,2206.41C1400.723,2266.16 1391.315,2298.409 1389.212,2369.08C1399.829,2349.537 1406.832,2326.91 1414.122,2305.896C1431.65,2345.868 1443.223,2414.275 1438.086,2458.095C1435.158,2483.096 1424.393,2508.3 1416.579,2532.196C1409.112,2555.294 1402.079,2578.522 1395.477,2601.879L1283.885,2974.298C1267.004,3030.842 1246.744,3087.911 1233.558,3145.367C1226.313,3160.684 1223.11,3181.603 1218.321,3198.117C1207.133,3236.681 1194.672,3274.797 1184.728,3313.721C1298.8,3087.72 1397.755,2853.753 1499.643,2622.025C1511.272,2595.568 1526.142,2568.452 1535.104,2541.068Z" style="fill:rgb(255,90,31);fill-rule:nonzero;"/>
                </g>
                <g transform="matrix(0.154627,0,0,0.154627,1386.369241,1678.252055)">
                    <path d="M1721.802,3194.486L1890.78,2846.47L1937.632,2753.022C1948.399,2731.232 1957.684,2708.329 1970.31,2687.525C1988.725,2657.179 2017.056,2638.647 2041.872,2614.43C2053.237,2603.339 2062.208,2591.259 2071.21,2578.21C2070.675,2607.85 2066.458,2637.051 2064.396,2666.584C2078.056,2633.992 2087.699,2599.823 2096.462,2565.634C2107.018,2524.448 2119.373,2438.779 2142.58,2407.728C2165.574,2376.962 2201.207,2355.277 2228.678,2328.544C2238.636,2294.264 2239.593,2258.123 2252.174,2224.287C2264.53,2191.066 2284.065,2161.88 2302.835,2132.11C2349.354,2058.332 2399.735,1984.836 2461.986,1923.239C2409.413,1951.878 2368.05,1994.547 2326.441,2036.838C2350.346,1977.197 2378.343,1918.992 2406.915,1861.464C2433.922,1807.096 2461.065,1752.72 2495.671,1702.675C2524.732,1660.647 2559.148,1621.403 2592.943,1583.169C2627.491,1544.084 2662.985,1505.988 2702.892,1472.308C2691.858,1447.958 2686.201,1424.872 2684.543,1398.108C2678.206,1295.754 2706.068,1185.626 2740.199,1090.017C2749.48,1064.022 2758.765,1037.238 2772.943,1013.453C2779.423,1002.587 2787.865,993.252 2796.201,983.797C2768.887,1002.155 2739.394,1017.653 2710.722,1033.804C2716.236,1014.688 2723.702,996.004 2730.096,977.156C2742.091,941.105 2753.838,904.972 2765.333,868.757L2920.015,370.177C2930.211,337.792 2939.605,305.087 2950.207,272.843C2918.62,329.251 2881.279,382.749 2846.335,437.141L2611.717,797.265C2588.152,833.118 2564.795,869.106 2541.642,905.227C2528.826,925.252 2514.911,945.379 2504.126,966.547C2499.279,939.792 2495.229,912.227 2487.044,886.242C2444.016,999.571 2385.522,1112.33 2299.493,1199.252C2289.799,1209.05 2279.754,1218.708 2269.087,1227.447C2256.891,1237.437 2226.66,1255.159 2219.196,1267.292C2213.641,1276.315 2210.826,1292.351 2207.941,1302.906C2198.405,1337.801 2191.013,1373.213 2188.56,1409.382C2184.416,1470.487 2189.006,1529.216 2174.553,1589.732C2147.707,1702.149 2090.989,1806.353 2053.885,1915.463C2051.758,1864.192 2056.432,1815.383 2061.843,1764.445C2028.866,1830.027 2015.281,1899.707 2006.695,1971.842C2003.006,2002.859 2000.465,2034.312 1992.733,2064.668C1980.198,2113.903 1933.506,2196.975 1899.961,2235.974C1911.328,2277.273 1924.741,2289.965 1901.472,2330.771L1818.347,2475.813C1802.748,2503.212 1785.905,2530.483 1772.724,2559.131C1787.34,2545.474 1800.119,2530.811 1812.662,2515.265C1811.714,2537.364 1810.221,2559.638 1812.764,2581.684C1816.345,2612.725 1830.552,2649.267 1825.248,2680.294C1821.225,2703.838 1809.385,2728.499 1801.027,2750.847C1785.395,2792.27 1770.019,2833.788 1754.9,2875.402L1620.115,3245.976C1586.193,3337.319 1549.657,3428.092 1520.46,3521.102C1508.833,3539.989 1502.156,3567.26 1494.522,3588.218C1529.572,3541.832 1567.193,3464.667 1597.227,3411.469L1681.26,3263.973C1694.634,3240.737 1709.903,3218.546 1721.802,3194.486Z" style="fill:rgb(255,90,31);fill-rule:nonzero;"/>
                </g>
                <g transform="matrix(0.154627,0,0,0.154627,1386.369241,1678.252055)">
                    <path d="M1184.032,2443.965C1192.418,2424.3 1204.122,2406.233 1213.776,2387.192C1231.308,2352.625 1247.164,2315.573 1259.64,2278.89C1238.934,2300.28 1218.466,2321.999 1197.288,2342.921C1213.081,2281.582 1226.56,2219.611 1243.723,2158.629C1261.871,2096.106 1283.137,2034.663 1307.522,1974.301C1316.714,1951.661 1325.851,1927.9 1337.802,1906.572C1348.649,1887.22 1361.869,1869.233 1371.574,1849.235C1389.955,1811.358 1403.277,1769.627 1417.12,1729.833C1373.387,1656.465 1371.464,1496.682 1391.98,1414.484C1394.804,1402.848 1398.375,1391.444 1402.692,1380.274C1387.235,1392.954 1371.804,1405.49 1355.623,1417.256C1371.867,1309.335 1380.268,1200.507 1393.385,1092.205C1400.091,1039.163 1406.165,986.047 1411.611,932.859C1413.8,913.193 1420.019,886.998 1417.977,867.608C1391.16,923.281 1365.242,979.369 1340.226,1035.872C1315.057,1091.323 1289.185,1146.723 1265.916,1203.002C1244.096,1255.766 1227.627,1311.27 1203.987,1363.156C1189.703,1345.939 1179.434,1326.792 1170.307,1306.4C1169.37,1334.447 1167.583,1362.119 1160.487,1389.39C1147.455,1439.494 1086.346,1576.183 1049.627,1610.763C1037.703,1621.991 1024.023,1629.726 1009.698,1637.469C1003.792,1670.056 992.454,1708.295 993.483,1741.367C994.105,1761.334 1000.996,1780.672 1006.773,1799.602C1016.239,1830.629 1023.993,1860.225 1023.653,1892.928C1022.565,1997.011 997.657,2098.555 987.048,2201.553C972.452,2173.886 962.453,2144.52 953.619,2114.593C949.919,2147.192 944.417,2180.611 947.005,2213.439C948.912,2237.637 957.189,2260.576 960.73,2284.472C969.333,2342.531 948.74,2402.193 914.621,2448.368C925.296,2477.296 939.493,2573.482 937.805,2604.318C937.62,2607.268 937.292,2610.203 936.821,2613.122C936.347,2616.041 935.733,2618.928 934.979,2621.789C934.224,2624.647 933.333,2627.462 932.303,2630.234C931.273,2633.005 930.109,2635.721 928.814,2638.379C921.814,2652.931 912.234,2663.373 900.453,2674.264C912.87,2693.454 924.674,2709.63 919.827,2733.724C912.604,2769.642 864.114,2848.729 842.837,2881.119C835.423,2892.405 823.954,2903.132 818.561,2915.4C808.136,2939.127 800.521,2997.27 794.915,3025.224C783.869,3078.449 773.356,3131.775 763.376,3185.207C759.133,3208.525 753.811,3232.272 751.38,3255.842C766.793,3227.194 779.104,3196.454 792.02,3166.605C821.651,3098.136 848.808,3028.767 880.04,2960.986C908.694,2994.629 915.793,3007.985 912.281,3052.198C909.052,3092.905 899.959,3133.492 892.612,3173.622C878.679,3249.713 863.296,3326.128 851.95,3402.646C840.787,3468.086 830.025,3533.591 819.664,3599.163C812.874,3641.182 804.783,3683.137 800.953,3725.565C818.5,3680.898 835.998,3634.909 850.606,3589.215C868.728,3532.522 883.569,3474.389 900.981,3417.384C925.243,3337.94 952.385,3259.42 976.447,3179.945C1004.315,3087.908 1021.411,2992.747 1062.395,2905.21C1068.267,2892.662 1073.568,2879.051 1081.643,2867.806L1085.137,2866.499C1090.017,2871.61 1090.481,2883.137 1090.423,2889.99C1090.364,2897.058 1088.903,2904.313 1087.768,2911.279C1132.413,2840.598 1064.099,2744.568 1106.095,2682.573C1119.76,2662.396 1145.157,2646.655 1164.666,2632.137C1140.445,2588.929 1151.771,2550.968 1164.468,2505.882C1170.244,2485.349 1175.667,2463.587 1184.032,2443.965Z" style="fill:rgb(255,90,31);fill-rule:nonzero;"/>
                </g>
            </g>
        </g>
    </g>
</svg>
