<?xml version="1.0" encoding="UTF-8" standalone="no"?><!DOCTYPE svg PUBLIC "-//W3C//DTD SVG 1.1//EN" "http://www.w3.org/Graphics/SVG/1.1/DTD/svg11.dtd"><svg width="100%" height="100%" viewBox="0 0 232 416" version="1.1" xmlns="http://www.w3.org/2000/svg" xmlns:xlink="http://www.w3.org/1999/xlink" xml:space="preserve" xmlns:serif="http://www.serif.com/" style="fill-rule:evenodd;clip-rule:evenodd;stroke-linejoin:round;stroke-miterlimit:2;"><g><path d="M169.552,60.531c-0.396,-1.885 -0.983,-3.748 -1.538,-5.592c-0.014,8.974 -0.475,17.933 -0.824,26.9c-0.242,6.221 -0.788,12.546 0.128,18.736c0.578,3.908 1.93,7.573 3.226,11.281c-1.926,-1.625 -3.954,-3.111 -6.084,-4.457l0.007,0.309c0.085,2.915 0.808,5.88 1.219,8.769c1.461,10.282 2.174,21.6 -4.524,30.322c1.841,3.05 3.379,6.25 4.929,9.454c5.13,10.605 9.018,21.495 12.214,32.824c1.037,3.676 2.21,7.376 2.842,11.147c-2.655,-3.722 -5,-7.376 -7.109,-11.436c0.099,2.593 0.924,5.313 1.675,7.791c1.081,3.471 2.325,6.883 3.732,10.236c3.469,8.094 7.431,15.555 7.158,24.625c1.386,0.818 2.713,1.683 4.03,2.607c0.584,7.217 0.864,14.884 2.613,21.912c0.228,-2.291 0.493,-4.561 1.131,-6.781c6.283,18.821 11.191,38.182 16.396,57.323c1.499,5.514 2.445,11.25 4.19,16.681c-0.048,1.615 2.39,10.909 2.835,12.921c0.972,4.575 1.978,9.141 3.019,13.7c0.575,2.637 1.01,5.415 1.835,7.981c-0.423,-4.893 -0.513,-9.815 -0.78,-14.719c-0.441,-9.017 -1.113,-18.016 -2.015,-26.998c-0.917,-9.01 -1.741,-18.086 -2.832,-27.071c-0.441,-3.634 -1.75,-7.271 -1.522,-10.954c0.037,-0.598 0.099,-0.979 0.552,-1.38c0.405,-0.031 0.721,-0.037 1.107,0.107c1.662,0.619 3.53,2.707 4.493,4.192c1.493,2.303 2.4,5.092 3.452,7.62c2.298,5.52 4.406,11.152 6.792,16.629c-0.809,-5.514 -3.655,-29.306 -5.367,-32.59c-0.963,-1.846 -3.84,-4.622 -5.281,-6.63c-3.927,-5.472 -8.524,-12.857 -8.855,-19.752c-0.09,-1.864 0.247,-3.67 0.548,-5.501c-0.193,-0.291 -0.383,-0.583 -0.572,-0.876c-0.864,-1.346 -1.586,-2.658 -1.945,-4.229c-1.197,-5.234 0.434,-12.931 1.577,-18.176c-1.167,-2.172 -2.228,-4.295 -2.909,-6.679c-2.283,-7.987 -2.987,-24.029 -2.317,-32.345c-0.544,1.555 -0.887,3.209 -1.331,4.797c-0.705,2.483 -1.453,4.954 -2.244,7.411c-2.086,-11.566 -3.501,-23.827 -3,-35.585c0.168,-3.951 1.692,-8.736 1.605,-12.23c-0.048,-1.941 -0.681,-3.938 -1.019,-5.852c-0.329,-1.861 -0.439,-3.71 -0.513,-5.594c-0.222,-0.117 -0.438,-0.235 -0.654,-0.362c-2.221,-1.308 -3.996,-2.924 -5.463,-5.046c-4.277,-6.188 -7.645,-19.903 -9.541,-27.417c-0.985,2.327 -1.716,4.431 -1.928,6.962c-1.367,-4.159 -2.393,-8.492 -3.639,-12.697l-9.5,-32.289Z" style="fill:#ff5a1f;fill-rule:nonzero;"/><path d="M127.429,272.9c-1.281,-2.77 -3.315,-4.918 -4.154,-7.942c-1.319,-4.752 -1.27,-9.81 -2.286,-14.632c1.596,1.07 3.103,2.348 4.638,3.509c-2.014,-3.539 -4.266,-6.919 -6.756,-10.14c-1.316,-1.692 -2.883,-3.336 -4.005,-5.16c-2.411,-3.918 -1.873,-9.557 -1.559,-13.946c-1.122,-0.639 -2.551,-1.176 -3.543,-1.974c-4.038,-3.247 -7.72,-13.576 -8.855,-18.448c-0.426,-1.83 -0.441,-3.751 -0.909,-5.557c-1.047,-4.048 -2.527,-8.107 -3.868,-12.07c0.199,3.88 0.534,7.766 0.782,11.645c-5.411,-12.167 -11.105,-24.42 -14.041,-37.474c-0.638,-2.837 -1.027,-5.888 -1.23,-8.792c-0.158,-2.273 -0.021,-4.755 -0.668,-6.95c-1.493,-5.067 -4.954,-9.304 -6.576,-14.344c-2.568,-0.547 -5.185,-1.134 -7.439,-2.543c-6.375,-3.986 -19.365,-21.644 -21.089,-28.989c-0.286,2.536 -0.872,5.027 -1.402,7.521c-1.994,-4.022 -4.396,-7.889 -6.685,-11.751c-6.477,-10.93 -13.523,-21.488 -20.023,-32.405c-1.949,-3.081 -3.97,-6.146 -5.752,-9.327c3.251,13.311 6.276,26.649 9.678,39.926c1.161,4.513 2.364,9.015 3.607,13.506c0.664,2.379 1.511,4.761 1.99,7.182c-1.968,-1.336 -3.992,-2.58 -6.074,-3.73c6.012,11.068 10.936,23.514 10.855,36.301c-0.016,2.473 -0.357,4.88 -0.656,7.327c1.538,3.306 6.753,12.454 9.366,14.65c3.473,2.919 6.655,4.565 9.759,8.163c6.163,7.143 10.9,15.803 15.629,23.919c1.887,3.239 4.046,6.384 5.631,9.783c-3.645,-2.531 -7.316,-5.014 -10.874,-7.668l0.147,0.206c1.269,1.756 2.724,3.372 4.071,5.069c1.256,1.582 2.406,3.314 3.78,4.793c2.521,2.714 5.346,5.1 7.804,7.893c4.505,5.117 9.003,13.323 8.893,20.321c3.714,1.563 7.578,2.852 9.219,6.906c0.844,2.085 1.136,4.38 1.545,6.578c1.348,7.231 2.916,10.353 7.76,15.882c-0.576,-2.24 -1.645,-4.458 -2.578,-6.574c4.165,1.802 9.891,6.19 12.603,9.89c1.548,2.111 2.513,4.792 3.61,7.165c1.067,2.287 2.177,4.554 3.328,6.8l17.879,36.256c2.719,5.5 5.218,11.28 8.283,16.588c0.533,1.679 1.771,3.499 2.576,5.095c1.879,3.728 3.63,7.513 5.629,11.18c-7.321,-25.284 -16.356,-50.105 -25.01,-74.962c-0.988,-2.838 -1.777,-5.955 -3.034,-8.675Z" style="fill:#ff5a1f;fill-rule:nonzero;"/><path d="M187.917,309.424l-11.781,-38.462l-3.051,-10.432c-0.723,-2.421 -1.639,-4.823 -2.151,-7.301c-0.747,-3.614 0.097,-7.032 0.272,-10.633c0.08,-1.649 -0.093,-3.204 -0.331,-4.835c2.058,2.294 3.805,4.816 5.74,7.211c-1.268,-3.449 -2.954,-6.733 -4.708,-9.956c-2.113,-3.883 -7.239,-11.28 -7.672,-15.288c-0.428,-3.971 0.749,-8.145 0.947,-12.126c-1.67,-3.315 -4.156,-6.134 -5.595,-9.601c-1.412,-3.404 -1.992,-7.01 -2.671,-10.605c-1.683,-8.911 -3.053,-18.075 -2.676,-27.173c-1.974,5.903 -2.102,12.081 -2.274,18.248c-2.404,-6.234 -4.394,-12.647 -6.293,-19.051c-1.794,-6.052 -3.579,-12.114 -4.488,-18.375c-0.764,-5.258 -0.923,-10.683 -1.058,-15.987c-0.138,-5.422 -0.133,-10.836 0.52,-16.227c-2.564,-1.072 -4.63,-2.429 -6.652,-4.35c-7.731,-7.344 -13.409,-17.701 -17.581,-27.397c-1.134,-2.636 -2.324,-5.333 -2.929,-8.148c-0.276,-1.286 -0.295,-2.595 -0.33,-3.905c-0.779,3.332 -1.927,6.601 -2.966,9.861c-0.934,-1.846 -1.689,-3.797 -2.537,-5.685c-1.64,-3.594 -3.304,-7.177 -4.994,-10.748l-23.533,-48.912c-1.517,-3.188 -3.118,-6.343 -4.594,-9.548c1.59,6.531 2.536,13.249 3.727,19.864l7.642,44.032c0.745,4.398 1.515,8.792 2.311,13.182c0.442,2.432 0.808,4.95 1.486,7.325c-2.264,-1.694 -4.524,-3.505 -6.988,-4.904c4.75,11.675 8.282,24.402 7.888,37.112c-0.044,1.432 -0.125,2.879 -0.318,4.3c-0.221,1.624 -1.268,5.114 -0.977,6.567c0.216,1.08 1.137,2.501 1.665,3.508c1.745,3.332 3.69,6.551 6.065,9.479c4.012,4.946 8.52,9.092 11.706,14.722c5.917,10.46 8.979,22.41 13.881,33.344c-3.793,-3.753 -6.894,-7.8 -10.089,-12.061c2.134,7.328 6.034,13.595 10.489,19.695c1.916,2.623 3.95,5.197 5.511,8.056c2.532,4.636 4.861,14.267 5.069,19.612c3.79,2.339 5.71,2.356 6.828,7.11l3.943,16.929c0.753,3.191 1.402,6.46 2.427,9.574c0.146,-2.075 0.08,-4.096 -0.066,-6.168c1.493,1.75 2.957,3.551 4.711,5.049c2.471,2.11 6.14,3.885 7.934,6.623c1.361,2.077 2.206,4.793 3.152,7.087c1.743,4.261 3.513,8.51 5.309,12.749l15.982,37.758c3.886,9.356 7.533,18.855 11.897,28.003c0.452,2.261 1.875,4.81 2.778,6.947c-0.617,-6.014 -3.217,-14.553 -4.698,-20.73l-4.048,-17.18c-0.627,-2.716 -1.036,-5.487 -1.834,-8.161Z" style="fill:#ff5a1f;fill-rule:nonzero;"/><path d="M93.825,290.37c-0.754,-2.091 -1.143,-4.295 -1.756,-6.429c-1.113,-3.873 -2.53,-7.817 -4.178,-11.493c-0.062,3.095 -0.082,6.198 -0.212,9.29c-3.142,-5.788 -6.504,-11.461 -9.516,-17.319c-3.046,-6.045 -5.778,-12.229 -8.197,-18.551c-0.904,-2.375 -1.891,-4.831 -2.491,-7.301c-0.545,-2.241 -0.812,-4.547 -1.489,-6.757c-1.283,-4.185 -3.224,-8.306 -4.988,-12.316c-8.525,-2.489 -19.987,-14.517 -24.247,-22.228c-0.609,-1.086 -1.145,-2.207 -1.607,-3.363c-0.279,2.06 -0.566,4.107 -0.964,6.149c-6.406,-9.367 -13.474,-18.247 -20.145,-27.421c-3.246,-4.513 -6.545,-8.987 -9.897,-13.422c-1.226,-1.652 -2.608,-4.087 -4.136,-5.419c1.901,6.138 3.9,12.243 5.997,18.316c2.011,6.004 3.964,12.054 6.179,17.986c2.075,5.562 4.752,10.954 6.627,16.579c-2.307,-0.299 -4.445,-1.03 -6.584,-1.936c1.915,2.202 3.739,4.435 5.13,7.014c2.556,4.737 7.584,19.471 7.237,24.705c-0.113,1.699 -0.606,3.257 -1.149,4.861c1.858,2.899 3.703,6.613 6.123,9.058c1.461,1.476 3.356,2.46 5.136,3.492c2.918,1.692 5.604,3.396 7.894,5.91c7.288,8.001 12.583,17.496 19.07,26.089c-3.071,-1.073 -5.911,-2.6 -8.703,-4.253c2.027,2.744 3.975,5.678 6.497,7.994c1.859,1.707 4.114,2.867 6.075,4.436c4.767,3.811 7.424,9.811 8.097,15.743c2.861,1.446 10.754,7.764 12.809,10.231c0.195,0.238 0.378,0.484 0.549,0.74c0.171,0.256 0.328,0.519 0.474,0.79c0.145,0.271 0.276,0.548 0.394,0.832c0.118,0.284 0.222,0.573 0.311,0.867c0.498,1.604 0.508,3.077 0.382,4.74c2.304,0.582 4.349,0.977 5.686,3.155c1.994,3.246 3.903,12.701 4.577,16.674c0.235,1.384 0.121,3.013 0.58,4.329c0.887,2.545 4.425,7.51 5.977,10.036c2.928,4.834 5.904,9.639 8.929,14.413c1.328,2.076 2.605,4.261 4.089,6.227c-0.855,-3.273 -2.095,-6.485 -3.226,-9.672c-2.593,-7.311 -5.438,-14.516 -7.861,-21.888c4.564,0.532 6.05,1.046 8.914,4.661c2.637,3.328 4.819,7.062 7.102,10.637c4.328,6.78 8.568,13.687 13.124,20.316c3.785,5.773 7.604,11.522 11.459,17.248c2.459,3.68 4.814,7.447 7.527,10.948c-1.827,-4.643 -3.752,-9.384 -5.876,-13.897c-2.635,-5.6 -5.622,-11.076 -8.334,-16.649c-3.779,-7.766 -7.273,-15.666 -11.07,-23.421c-4.396,-8.981 -9.834,-17.436 -12.913,-27.003c-0.442,-1.371 -1.002,-2.783 -1.184,-4.211l0.173,-0.347c0.733,0.044 1.585,0.888 2.066,1.414c0.496,0.542 0.899,1.198 1.306,1.809c-1.607,-8.543 -13.608,-11.016 -14.801,-18.71c-0.389,-2.504 0.43,-5.501 0.887,-7.988c-4.904,-1.574 -6.73,-5.266 -8.956,-9.598c-1.014,-1.972 -2.143,-4.013 -2.895,-6.099Z" style="fill:#ff5a1f;fill-rule:nonzero;"/></g></svg>